<?xml version="1.0" encoding="UTF-8"?>
<!DOCTYPE svg PUBLIC "-//W3C//DTD SVG 1.1//EN" "http://www.w3.org/Graphics/SVG/1.1/DTD/svg11.dtd">
<svg xmlns="http://www.w3.org/2000/svg" version="1.1" width="65px" height="65px" style="shape-rendering:geometricPrecision; text-rendering:geometricPrecision; image-rendering:optimizeQuality; fill-rule:evenodd; clip-rule:evenodd" xmlns:xlink="http://www.w3.org/1999/xlink">
<g><path style="opacity:1" fill="#fda30e" d="M 21.5,15.5 C 22.4577,16.9616 23.6244,18.2949 25,19.5C 29,18.1667 33,18.1667 37,19.5C 38.3756,18.2949 39.5423,16.9616 40.5,15.5C 42.1757,13.1663 44.509,12.1663 47.5,12.5C 47.5,15.5 47.5,18.5 47.5,21.5C 46.1024,22.7767 45.4357,24.4434 45.5,26.5C 46.7669,29.7051 47.4336,33.0385 47.5,36.5C 44.2761,36.2035 41.2761,36.8702 38.5,38.5C 33.451,31.8483 28.451,31.8483 23.5,38.5C 20.7239,36.8702 17.7239,36.2035 14.5,36.5C 14.5664,33.0385 15.2331,29.7051 16.5,26.5C 16.6598,24.6455 15.9931,23.3121 14.5,22.5C 14.5,19.1667 14.5,15.8333 14.5,12.5C 17.491,12.1663 19.8243,13.1663 21.5,15.5 Z"/></g>
<g><path style="opacity:0.999" fill="#ff2f1b" d="M 40.5,15.5 C 39.5423,16.9616 38.3756,18.2949 37,19.5C 33,18.1667 29,18.1667 25,19.5C 23.6244,18.2949 22.4577,16.9616 21.5,15.5C 27.8333,12.8333 34.1667,12.8333 40.5,15.5 Z"/></g>
<g><path style="opacity:0.165" fill="#ffa8a5" d="M 47.5,22.5 C 48.9063,22.9731 49.573,23.9731 49.5,25.5C 48.0937,25.0269 47.427,24.0269 47.5,22.5 Z"/></g>
<g><path style="opacity:0.541" fill="#ff6c69" d="M 13.5,24.5 C 12.8005,28.7978 12.4672,33.1311 12.5,37.5C 11.8401,36.036 11.5068,34.3693 11.5,32.5C 11.3817,29.5143 12.0483,26.8476 13.5,24.5 Z"/></g>
<g><path style="opacity:1" fill="#ff3c2d" d="M 47.5,21.5 C 47.5,21.8333 47.5,22.1667 47.5,22.5C 47.427,24.0269 48.0937,25.0269 49.5,25.5C 52.4057,44.0974 44.4057,52.5974 25.5,51C 18.2382,49.2396 13.9049,44.7396 12.5,37.5C 12.4672,33.1311 12.8005,28.7978 13.5,24.5C 13.3284,23.5084 13.6618,22.8417 14.5,22.5C 15.9931,23.3121 16.6598,24.6455 16.5,26.5C 15.2331,29.7051 14.5664,33.0385 14.5,36.5C 21.2825,49.4051 30.9492,51.9051 43.5,44C 45.495,41.8428 46.8283,39.3428 47.5,36.5C 47.4336,33.0385 46.7669,29.7051 45.5,26.5C 45.4357,24.4434 46.1024,22.7767 47.5,21.5 Z"/></g>
<g><path style="opacity:1" fill="#f9f3f0" d="M 47.5,36.5 C 46.8283,39.3428 45.495,41.8428 43.5,44C 30.9492,51.9051 21.2825,49.4051 14.5,36.5C 17.7239,36.2035 20.7239,36.8702 23.5,38.5C 28.451,31.8483 33.451,31.8483 38.5,38.5C 41.2761,36.8702 44.2761,36.2035 47.5,36.5 Z"/></g>
<g><path style="opacity:1" fill="#1c1101" d="M 39.5,29.5 C 41.0281,29.5173 41.5281,30.184 41,31.5C 34.7158,34.057 34.2158,33.3904 39.5,29.5 Z"/></g>
<g><path style="opacity:1" fill="#231601" d="M 20.5,29.5 C 23.09,30.1283 25.4234,31.295 27.5,33C 24.0063,33.9204 21.673,32.7537 20.5,29.5 Z"/></g>
<g><path style="opacity:1" fill="#fff2de" d="M 37.5,25.5 C 38.9953,25.4148 39.9953,26.0815 40.5,27.5C 39.1667,28.8333 37.8333,28.8333 36.5,27.5C 36.8627,26.8165 37.1961,26.1499 37.5,25.5 Z"/></g>
<g><path style="opacity:1" fill="#fff4e2" d="M 22.5,25.5 C 23.9953,25.4148 24.9953,26.0815 25.5,27.5C 24.1667,28.8333 22.8333,28.8333 21.5,27.5C 21.8627,26.8165 22.1961,26.1499 22.5,25.5 Z"/></g>
<g><path style="opacity:1" fill="#414141" d="M 29.5,36.5 C 30.8333,36.5 32.1667,36.5 33.5,36.5C 33.5792,37.9305 33.2458,39.2638 32.5,40.5C 33.5,41.1667 34.5,41.8333 35.5,42.5C 35.3333,42.8333 35.1667,43.1667 35,43.5C 32.5639,43.454 30.0639,43.1207 27.5,42.5C 28.5,41.8333 29.5,41.1667 30.5,40.5C 29.7542,39.2638 29.4208,37.9305 29.5,36.5 Z"/></g>
</svg>
